<svg xmlns="http://www.w3.org/2000/svg" viewBox="0 0 128 128">
  <defs>
    <linearGradient id="bg" x1="0%" y1="0%" x2="100%" y2="100%">
      <stop offset="0%" style="stop-color:#238636"/>
      <stop offset="100%" style="stop-color:#1a6b2b"/>
    </linearGradient>
  </defs>
  <rect width="128" height="128" rx="24" fill="url(#bg)"/>
  <!-- Tab shapes -->
  <rect x="20" y="38" width="88" height="68" rx="6" fill="#0d1117" opacity="0.9"/>
  <!-- Tab bar -->
  <rect x="20" y="28" width="30" height="14" rx="4 4 0 0" fill="#e6edf3"/>
  <rect x="54" y="28" width="30" height="14" rx="4 4 0 0" fill="#58a6ff"/>
  <rect x="88" y="28" width="20" height="14" rx="4 4 0 0" fill="#8b949e" opacity="0.5"/>
  <!-- Grid inside (grouped tabs) -->
  <rect x="28" y="48" width="32" height="20" rx="3" fill="#21262d" stroke="#30363d" stroke-width="1"/>
  <rect x="68" y="48" width="32" height="20" rx="3" fill="#21262d" stroke="#30363d" stroke-width="1"/>
  <rect x="28" y="76" width="32" height="20" rx="3" fill="#21262d" stroke="#30363d" stroke-width="1"/>
  <!-- Shield (keepalive) -->
  <path d="M84 76l-1 0.5v3c0 2.8 1.9 5.4 4.5 6l4.5-6.5V76.5L84 76z" fill="none"/>
  <g transform="translate(72, 72) scale(0.75)">
    <path d="M24 4L8 10v8c0 7.4 5.1 14.3 12 16 6.9-1.7 12-8.6 12-16v-8L24 4z" fill="#58a6ff" opacity="0.8"/>
    <path d="M24 4L8 10v8c0 7.4 5.1 14.3 12 16 6.9-1.7 12-8.6 12-16v-8L24 4zm0 14.7h8c-.7 5.5-4.4 10.4-8 11.9V18.7h-8v-6.4l8-3.6v10z" fill="#e6edf3"/>
  </g>
</svg>
